<?xml version="1.0" encoding="UTF-8" standalone="no"?> <svg width="512" height="512" viewBox="0 0 512 512" fill="none" xmlns="http://www.w3.org/2000/svg">
<path d="M32 128C32 74.9807 74.9807 32 128 32H384C437.019 32 480 74.9807 480 128V384C480 437.019 437.019 480 384 480H128C74.9807 480 32 437.019 32 384V128Z" fill="#597DDC"/>
<path fill-rule="evenodd" clip-rule="evenodd" d="M128 32C74.9807 32 32 74.9807 32 128V368C32 412.183 67.8172 448 112 448H368C412.183 448 448 412.183 448 368V112C448 67.8172 412.183 32 368 32H128Z" fill="#6EBAFF"/>
<path fill-rule="evenodd" clip-rule="evenodd" d="M148 128C148 116.954 156.954 108 168 108H328C347.882 108 364 124.118 364 144V272C364 344.902 304.902 404 232 404H168C156.954 404 148 395.046 148 384C148 372.954 156.954 364 168 364H232C282.81 364 324 322.81 324 272V148H168C156.954 148 148 139.046 148 128Z" fill="white"/>
</svg>
